<?xml version="1.0" encoding="utf-8"?>
<!-- Generator: Adobe Illustrator 16.0.4, SVG Export Plug-In . SVG Version: 6.00 Build 0)  -->
<!DOCTYPE svg PUBLIC "-//W3C//DTD SVG 1.1//EN" "http://www.w3.org/Graphics/SVG/1.1/DTD/svg11.dtd">
<svg version="1.1" xmlns="http://www.w3.org/2000/svg" xmlns:xlink="http://www.w3.org/1999/xlink" x="0px" y="0px" width="508px"
	 height="508px" viewBox="0 0 508 508" enable-background="new 0 0 508 508" xml:space="preserve">
<g id="c_x5F_map">
	
		<image overflow="visible" width="893" height="743" xlink:href="./map-background.png"  transform="matrix(0.751 0 0 0.751 -69.2471 -55.0029)">
	</image>
</g>
<g id="c_x5F_titre">
	<rect x="-69.5" y="443.5" fill="#FFFFFF" stroke="#CCCCCC" stroke-miterlimit="10" width="671" height="77"/>
	<g>
		<path fill="#333333" d="M88.068,466.622v6.838h-2.08v-18.2h3.588c2.253,0,3.38,1.127,3.38,3.38v4.603
			c0,2.253-1.127,3.38-3.38,3.38H88.068z M90.876,458.536c0-0.919-0.459-1.378-1.378-1.378h-1.43v7.565h1.43
			c0.918,0,1.378-0.459,1.378-1.378V458.536z"/>
		<path fill="#333333" d="M95.348,473.46v-14.04h1.976v1.482c0.312-0.572,0.637-0.984,0.975-1.235
			c0.338-0.251,0.767-0.377,1.287-0.377v2.236c-0.936,0.069-1.69,0.363-2.262,0.884v11.05H95.348z"/>
		<path fill="#333333" d="M101.666,457.99v-2.21h2.08v2.21H101.666z M101.717,473.46v-14.04h1.976v14.04H101.717z"/>
		<path fill="#333333" d="M107.593,473.46h-2.028l2.6-6.864l-2.548-7.176h2.08l1.638,4.94l1.638-4.94h2.028l-2.574,6.864
			l2.626,7.176h-2.08l-1.69-4.966L107.593,473.46z"/>
		<path fill="#333333" d="M125.61,455v18.46h-1.976v-0.91c-0.676,0.711-1.482,1.066-2.418,1.066c-0.832,0-1.46-0.251-1.885-0.754
			c-0.425-0.503-0.637-1.179-0.637-2.028v-8.788c0-0.849,0.212-1.525,0.637-2.028c0.424-0.502,1.053-0.754,1.885-0.754
			c0.936,0,1.742,0.338,2.418,1.015V455H125.61z M123.634,471.016v-9.151c-0.572-0.485-1.179-0.729-1.82-0.729
			c-0.763,0-1.144,0.382-1.144,1.145v8.319c0,0.764,0.381,1.145,1.144,1.145C122.456,471.744,123.062,471.501,123.634,471.016z"/>
		<path fill="#333333" d="M135.049,459.42v14.04h-1.976v-0.91c-0.746,0.711-1.578,1.066-2.496,1.066
			c-1.595,0-2.392-0.841-2.392-2.522V459.42h1.976v11.258c0,0.711,0.338,1.066,1.014,1.066c0.606,0,1.239-0.234,1.898-0.702V459.42
			H135.049z"/>
		<path fill="#333333" d="M148.257,461.838v11.622h-1.976v-11.31c0-0.677-0.312-1.015-0.936-1.015c-0.555,0-1.162,0.234-1.82,0.702
			v11.622h-1.976v-14.04h1.976v0.91c0.745-0.711,1.551-1.066,2.418-1.066c0.988,0,1.672,0.382,2.054,1.145
			c0.901-0.763,1.794-1.145,2.678-1.145c0.762,0,1.339,0.217,1.729,0.65c0.39,0.434,0.585,1.04,0.585,1.82v11.726h-1.976v-11.31
			c0-0.677-0.312-1.015-0.936-1.015C149.522,461.136,148.915,461.37,148.257,461.838z"/>
		<path fill="#333333" d="M155.38,471.146v-2.573c0-0.85,0.156-1.491,0.468-1.924c0.312-0.434,0.849-0.78,1.612-1.04l2.652-0.91
			v-2.34c0-0.85-0.416-1.274-1.248-1.274h-0.156c-0.832,0-1.248,0.425-1.248,1.274v1.741h-1.924v-1.664
			c0-2.114,1.057-3.172,3.172-3.172h0.208c2.114,0,3.172,1.058,3.172,3.172v11.024h-1.976v-0.884
			c-0.728,0.693-1.534,1.04-2.418,1.04C156.151,473.616,155.38,472.793,155.38,471.146z M158.318,471.744
			c0.555,0,1.152-0.217,1.794-0.65v-4.576l-1.794,0.624c-0.364,0.14-0.616,0.316-0.754,0.533c-0.139,0.217-0.208,0.524-0.208,0.923
			v2.132C157.356,471.406,157.677,471.744,158.318,471.744z"/>
		<path fill="#333333" d="M164.636,473.46v-14.04h1.976v1.482c0.312-0.572,0.637-0.984,0.975-1.235
			c0.338-0.251,0.767-0.377,1.287-0.377v2.236c-0.936,0.069-1.69,0.363-2.262,0.884v11.05H164.636z"/>
		<path fill="#333333" d="M175.478,464.672v-2.313c0-0.832-0.416-1.248-1.248-1.248h-0.364c-0.832,0-1.248,0.416-1.248,1.248v8.163
			c0,0.832,0.416,1.248,1.248,1.248h0.39c0.832,0,1.248-0.416,1.248-1.248v-2.781h1.95v2.704c0,2.114-1.058,3.172-3.172,3.172
			h-0.468c-2.115,0-3.172-1.058-3.172-3.172v-8.009c0-2.114,1.057-3.172,3.172-3.172h0.494c2.08,0,3.12,1.04,3.12,3.12v2.288
			H175.478z"/>
		<path fill="#333333" d="M179.949,473.46V455h1.976v5.33c0.745-0.711,1.577-1.066,2.496-1.066c1.595,0,2.392,0.841,2.392,2.522
			v11.674h-1.976v-11.258c0-0.711-0.338-1.066-1.014-1.066c-0.607,0-1.24,0.234-1.898,0.702v11.622H179.949z"/>
		<path fill="#333333" d="M196.069,467.168h-4.784v3.354c0,0.832,0.416,1.248,1.248,1.248h0.364c0.832,0,1.248-0.416,1.248-1.248
			v-1.611h1.924v1.534c0,2.114-1.057,3.172-3.172,3.172h-0.416c-2.115,0-3.172-1.058-3.172-3.172v-8.009
			c0-2.114,1.057-3.172,3.172-3.172h0.416c2.115,0,3.172,1.058,3.172,3.172V467.168z M191.285,462.358v2.938h2.808v-2.938
			c0-0.832-0.416-1.248-1.248-1.248h-0.312C191.701,461.11,191.285,461.526,191.285,462.358z M191.987,458.25l0.936-2.73h2.002
			l-1.612,2.73H191.987z"/>
		<path fill="#333333" d="M202.542,473.46V455h1.976v18.46H202.542z"/>
		<path fill="#333333" d="M210.862,473.616h-0.572c-2.115,0-3.172-1.058-3.172-3.172v-8.009c0-2.114,1.057-3.172,3.172-3.172h0.572
			c2.114,0,3.172,1.058,3.172,3.172v8.009C214.034,472.559,212.977,473.616,210.862,473.616z M210.81,461.11h-0.468
			c-0.832,0-1.248,0.416-1.248,1.248v8.163c0,0.832,0.416,1.248,1.248,1.248h0.468c0.832,0,1.248-0.416,1.248-1.248v-8.163
			C212.058,461.526,211.642,461.11,210.81,461.11z"/>
		<path fill="#333333" d="M221.313,464.672v-2.313c0-0.832-0.416-1.248-1.248-1.248h-0.364c-0.832,0-1.248,0.416-1.248,1.248v8.163
			c0,0.832,0.416,1.248,1.248,1.248h0.39c0.832,0,1.248-0.416,1.248-1.248v-2.781h1.95v2.704c0,2.114-1.058,3.172-3.172,3.172
			h-0.468c-2.115,0-3.172-1.058-3.172-3.172v-8.009c0-2.114,1.057-3.172,3.172-3.172h0.494c2.08,0,3.12,1.04,3.12,3.12v2.288
			H221.313z"/>
		<path fill="#333333" d="M225.604,471.146v-2.573c0-0.85,0.156-1.491,0.468-1.924c0.312-0.434,0.849-0.78,1.612-1.04l2.652-0.91
			v-2.34c0-0.85-0.416-1.274-1.248-1.274h-0.156c-0.832,0-1.248,0.425-1.248,1.274v1.741h-1.924v-1.664
			c0-2.114,1.057-3.172,3.172-3.172h0.208c2.114,0,3.172,1.058,3.172,3.172v11.024h-1.976v-0.884
			c-0.728,0.693-1.534,1.04-2.418,1.04C226.375,473.616,225.604,472.793,225.604,471.146z M228.542,471.744
			c0.555,0,1.152-0.217,1.794-0.65v-4.576l-1.794,0.624c-0.364,0.14-0.616,0.316-0.754,0.533c-0.139,0.217-0.208,0.524-0.208,0.923
			v2.132C227.58,471.406,227.9,471.744,228.542,471.744z"/>
		<path fill="#333333" d="M237.225,461.24v12.22h-1.976v-12.22h-0.936v-1.82h0.936v-2.34h1.976v2.34h1.43v1.82H237.225z"/>
		<path fill="#333333" d="M240.735,457.99v-2.21h2.08v2.21H240.735z M240.787,473.46v-14.04h1.976v14.04H240.787z"/>
		<path fill="#333333" d="M245.883,459.42v-1.586c0-1.889,0.944-2.834,2.834-2.834h0.806v1.82h-0.728
			c-0.624,0-0.936,0.312-0.936,0.936v1.664h1.586v1.82h-1.586v12.22h-1.976v-12.22h-0.806v-1.82H245.883z"/>
		<path fill="#333333" d="M255.034,471.146v-2.573c0-0.85,0.156-1.491,0.469-1.924c0.312-0.434,0.849-0.78,1.611-1.04l2.652-0.91
			v-2.34c0-0.85-0.416-1.274-1.248-1.274h-0.156c-0.832,0-1.248,0.425-1.248,1.274v1.741h-1.924v-1.664
			c0-2.114,1.058-3.172,3.172-3.172h0.208c2.115,0,3.172,1.058,3.172,3.172v11.024h-1.976v-0.884
			c-0.728,0.693-1.534,1.04-2.418,1.04C255.806,473.616,255.034,472.793,255.034,471.146z M258.389,455.52l0.936,2.73h-1.325
			l-1.612-2.73H258.389z M257.973,471.744c0.555,0,1.152-0.217,1.794-0.65v-4.576l-1.794,0.624c-0.364,0.14-0.615,0.316-0.754,0.533
			s-0.208,0.524-0.208,0.923v2.132C257.011,471.406,257.331,471.744,257.973,471.744z"/>
		<path fill="#333333" d="M273.728,465.686h-1.69v-1.897h3.718v6.448c0,2.253-1.127,3.38-3.38,3.38h-0.779
			c-2.254,0-3.381-1.127-3.381-3.38v-11.752c0-2.254,1.127-3.381,3.381-3.381h0.779c2.219,0,3.328,1.11,3.328,3.328v2.496h-2.027
			v-2.548c0-0.918-0.46-1.378-1.379-1.378h-0.624c-0.919,0-1.378,0.46-1.378,1.378v11.96c0,0.919,0.459,1.378,1.378,1.378h0.677
			c0.918,0,1.378-0.459,1.378-1.378V465.686z"/>
		<path fill="#333333" d="M285.011,467.168h-4.784v3.354c0,0.832,0.416,1.248,1.248,1.248h0.364c0.832,0,1.248-0.416,1.248-1.248
			v-1.611h1.924v1.534c0,2.114-1.058,3.172-3.172,3.172h-0.416c-2.115,0-3.172-1.058-3.172-3.172v-8.009
			c0-2.114,1.057-3.172,3.172-3.172h0.416c2.114,0,3.172,1.058,3.172,3.172V467.168z M280.227,462.358v2.938h2.809v-2.938
			c0-0.832-0.416-1.248-1.248-1.248h-0.312C280.643,461.11,280.227,461.526,280.227,462.358z"/>
		<path fill="#333333" d="M287.507,473.46v-14.04h1.976v0.91c0.745-0.711,1.577-1.066,2.496-1.066c1.595,0,2.393,0.841,2.393,2.522
			v11.674h-1.977v-11.258c0-0.711-0.338-1.066-1.014-1.066c-0.607,0-1.239,0.234-1.898,0.702v11.622H287.507z"/>
		<path fill="#333333" d="M303.627,467.168h-4.784v3.354c0,0.832,0.416,1.248,1.248,1.248h0.364c0.832,0,1.248-0.416,1.248-1.248
			v-1.611h1.924v1.534c0,2.114-1.058,3.172-3.172,3.172h-0.416c-2.115,0-3.172-1.058-3.172-3.172v-8.009
			c0-2.114,1.057-3.172,3.172-3.172h0.416c2.114,0,3.172,1.058,3.172,3.172V467.168z M300.013,455.52l0.937,2.73h-1.326l-1.612-2.73
			H300.013z M298.843,462.358v2.938h2.809v-2.938c0-0.832-0.416-1.248-1.248-1.248h-0.312
			C299.259,461.11,298.843,461.526,298.843,462.358z"/>
		<path fill="#333333" d="M310.154,473.46h-2.185l-2.548-14.04h2.002l1.664,10.972l1.664-10.972h1.95L310.154,473.46z"/>
		<path fill="#333333" d="M321.282,467.168h-4.784v3.354c0,0.832,0.416,1.248,1.248,1.248h0.364c0.832,0,1.248-0.416,1.248-1.248
			v-1.611h1.924v1.534c0,2.114-1.058,3.172-3.172,3.172h-0.416c-2.115,0-3.172-1.058-3.172-3.172v-8.009
			c0-2.114,1.057-3.172,3.172-3.172h0.416c2.114,0,3.172,1.058,3.172,3.172V467.168z M316.498,462.358v2.938h2.809v-2.938
			c0-0.832-0.416-1.248-1.248-1.248h-0.312C316.914,461.11,316.498,461.526,316.498,462.358z"/>
		<path fill="#333333" d="M325.675,470.444v2.002c0,0.555-0.043,0.979-0.13,1.273c-0.087,0.295-0.269,0.676-0.546,1.145
			l-0.546,0.857l-0.832-0.233l0.312-0.677c0.225-0.52,0.363-0.971,0.416-1.352h-0.702v-3.016H325.675z"/>
		<path fill="#333333" d="M338.728,467.168h-4.784v3.354c0,0.832,0.416,1.248,1.248,1.248h0.364c0.832,0,1.248-0.416,1.248-1.248
			v-1.611h1.924v1.534c0,2.114-1.058,3.172-3.172,3.172h-0.416c-2.115,0-3.172-1.058-3.172-3.172v-8.009
			c0-2.114,1.057-3.172,3.172-3.172h0.416c2.114,0,3.172,1.058,3.172,3.172V467.168z M333.943,462.358v2.938h2.809v-2.938
			c0-0.832-0.416-1.248-1.248-1.248h-0.312C334.359,461.11,333.943,461.526,333.943,462.358z"/>
		<path fill="#333333" d="M341.223,473.46v-14.04h1.976v0.91c0.745-0.711,1.577-1.066,2.496-1.066c1.595,0,2.393,0.841,2.393,2.522
			v11.674h-1.977v-11.258c0-0.711-0.338-1.066-1.014-1.066c-0.607,0-1.239,0.234-1.898,0.702v11.622H341.223z"/>
		<path fill="#333333" d="M359.995,466.466h2.028v3.771c0,2.253-1.127,3.38-3.38,3.38h-0.676c-2.254,0-3.381-1.127-3.381-3.38
			v-11.752c0-2.254,1.127-3.381,3.381-3.381h0.676c2.219,0,3.328,1.11,3.328,3.328v3.276h-2.028v-3.328
			c0-0.918-0.459-1.378-1.378-1.378h-0.521c-0.919,0-1.378,0.46-1.378,1.378v11.96c0,0.919,0.459,1.378,1.378,1.378h0.572
			c0.919,0,1.378-0.459,1.378-1.378V466.466z"/>
		<path fill="#333333" d="M366.704,463.19h3.38v-7.931h2.08v18.2h-2.08v-8.32h-3.38v8.32h-2.08v-18.2h2.08V463.19z"/>
		<path fill="#333333" d="M374.919,455.26h5.59v1.924h-3.51v6.084h3.38v1.898h-3.38v8.294h-2.08V455.26z"/>
		<path fill="#333333" d="M386.308,454.428l-3.38,19.864h-1.769l3.381-19.864H386.308z"/>
		<path fill="#333333" d="M394.289,461.838v11.622h-1.977v-11.31c0-0.677-0.312-1.015-0.936-1.015c-0.555,0-1.161,0.234-1.82,0.702
			v11.622h-1.976v-14.04h1.976v0.91c0.745-0.711,1.552-1.066,2.418-1.066c0.988,0,1.673,0.382,2.055,1.145
			c0.9-0.763,1.794-1.145,2.678-1.145c0.763,0,1.339,0.217,1.729,0.65c0.391,0.434,0.585,1.04,0.585,1.82v11.726h-1.976v-11.31
			c0-0.677-0.312-1.015-0.936-1.015C395.554,461.136,394.947,461.37,394.289,461.838z"/>
		<path fill="#333333" d="M402.868,466.804l2.938-3.691c0.537-0.677,0.806-1.335,0.806-1.977v-2.756
			c0-0.918-0.441-1.378-1.326-1.378h-0.416c-0.884,0-1.325,0.46-1.325,1.378v3.432h-2.028v-3.327c0-2.254,1.109-3.381,3.328-3.381
			h0.52c2.219,0,3.328,1.127,3.328,3.381v2.34c0,1.248-0.451,2.427-1.352,3.536l-2.938,3.691c-0.347,0.434-0.576,0.807-0.688,1.118
			c-0.113,0.312-0.169,0.745-0.169,1.3v1.066h5.147v1.924h-7.228v-3.12c0-0.658,0.1-1.248,0.299-1.768
			C401.963,468.052,402.331,467.463,402.868,466.804z"/>
		<path fill="#666666" d="M85.684,495.06v-12.6h2.376c1.86,0,2.79,0.93,2.79,2.79v7.02c0,1.86-0.93,2.79-2.79,2.79H85.684z
			 M87.124,483.773v9.972h0.864c0.948,0,1.422-0.485,1.422-1.458v-7.056c0-0.972-0.474-1.458-1.422-1.458H87.124z"/>
		<path fill="#666666" d="M95.206,495.168H94.81c-1.464,0-2.196-0.732-2.196-2.196v-5.544c0-1.464,0.731-2.196,2.196-2.196h0.396
			c1.464,0,2.196,0.732,2.196,2.196v5.544C97.402,494.436,96.67,495.168,95.206,495.168z M95.17,486.51h-0.324
			c-0.576,0-0.864,0.288-0.864,0.864v5.651c0,0.576,0.288,0.864,0.864,0.864h0.324c0.576,0,0.864-0.288,0.864-0.864v-5.651
			C96.034,486.798,95.746,486.51,95.17,486.51z"/>
		<path fill="#666666" d="M99.148,495.06v-9.72h1.368v0.63c0.516-0.492,1.092-0.738,1.728-0.738c1.104,0,1.656,0.582,1.656,1.746
			v8.082h-1.368v-7.794c0-0.492-0.234-0.738-0.702-0.738c-0.42,0-0.858,0.162-1.314,0.486v8.046H99.148z"/>
		<path fill="#666666" d="M105.682,495.06v-9.72h1.368v0.63c0.516-0.492,1.092-0.738,1.728-0.738c1.104,0,1.656,0.582,1.656,1.746
			v8.082h-1.368v-7.794c0-0.492-0.234-0.738-0.702-0.738c-0.42,0-0.858,0.162-1.314,0.486v8.046H105.682z"/>
		<path fill="#666666" d="M116.841,490.703h-3.312v2.322c0,0.576,0.288,0.864,0.864,0.864h0.252c0.576,0,0.864-0.288,0.864-0.864
			v-1.116h1.332v1.062c0,1.464-0.732,2.196-2.196,2.196h-0.288c-1.464,0-2.196-0.732-2.196-2.196v-5.544
			c0-1.464,0.731-2.196,2.196-2.196h0.288c1.464,0,2.196,0.732,2.196,2.196V490.703z M113.529,487.374v2.033h1.944v-2.033
			c0-0.576-0.288-0.864-0.864-0.864h-0.216C113.817,486.51,113.529,486.798,113.529,487.374z M114.016,484.529l0.648-1.89h1.386
			l-1.116,1.89H114.016z"/>
		<path fill="#666666" d="M123.195,490.703h-3.312v2.322c0,0.576,0.288,0.864,0.864,0.864H121c0.576,0,0.864-0.288,0.864-0.864
			v-1.116h1.332v1.062c0,1.464-0.732,2.196-2.196,2.196h-0.288c-1.464,0-2.196-0.732-2.196-2.196v-5.544
			c0-1.464,0.731-2.196,2.196-2.196H121c1.464,0,2.196,0.732,2.196,2.196V490.703z M119.883,487.374v2.033h1.944v-2.033
			c0-0.576-0.288-0.864-0.864-0.864h-0.216C120.171,486.51,119.883,486.798,119.883,487.374z"/>
		<path fill="#666666" d="M128.109,488.76v-1.458c0-0.552-0.276-0.828-0.828-0.828h-0.234c-0.552,0-0.828,0.276-0.828,0.828v0.846
			c0,0.408,0.168,0.714,0.504,0.918l1.62,1.008c0.408,0.265,0.699,0.534,0.873,0.811s0.261,0.647,0.261,1.116v0.972
			c0,1.464-0.732,2.196-2.196,2.196h-0.27c-1.44,0-2.16-0.721-2.16-2.16v-1.44h1.35v1.53c0,0.552,0.276,0.828,0.828,0.828h0.27
			c0.552,0,0.828-0.276,0.828-0.828v-0.918c0-0.396-0.168-0.702-0.504-0.918l-1.62-1.008c-0.408-0.264-0.699-0.534-0.873-0.811
			c-0.174-0.275-0.261-0.647-0.261-1.116v-0.899c0-1.464,0.731-2.196,2.196-2.196h0.234c1.44,0,2.16,0.72,2.16,2.16v1.368H128.109z"
			/>
		<path fill="#666666" d="M132.501,485.34v2.088h-1.404v-2.088H132.501z M132.501,492.972v2.088h-1.404v-2.088H132.501z"/>
		<path fill="#666666" d="M141.699,493.241c0,0.589-0.147,1.057-0.441,1.404c-0.294,0.349-0.729,0.522-1.305,0.522
			c-0.648,0-1.206-0.234-1.674-0.702v2.574h-1.368v-11.7h1.368v0.63c0.468-0.492,1.026-0.738,1.674-0.738
			c0.576,0,1.011,0.174,1.305,0.522c0.294,0.348,0.441,0.815,0.441,1.403V493.241z M140.331,487.319
			c0-0.527-0.264-0.792-0.792-0.792c-0.444,0-0.864,0.168-1.26,0.504v6.336c0.396,0.337,0.816,0.504,1.26,0.504
			c0.528,0,0.792-0.264,0.792-0.792V487.319z"/>
		<path fill="#666666" d="M143.463,495.06v-9.72h1.368v1.025c0.216-0.396,0.441-0.681,0.675-0.854
			c0.234-0.174,0.531-0.261,0.891-0.261v1.548c-0.648,0.048-1.17,0.252-1.566,0.611v7.65H143.463z"/>
		<path fill="#666666" d="M147.837,484.35v-1.53h1.44v1.53H147.837z M147.873,495.06v-9.72h1.368v9.72H147.873z"/>
		<path fill="#666666" d="M151.095,495.06v-9.72h1.368v0.63c0.516-0.492,1.092-0.738,1.728-0.738c1.104,0,1.656,0.582,1.656,1.746
			v8.082h-1.368v-7.794c0-0.492-0.234-0.738-0.702-0.738c-0.42,0-0.858,0.162-1.314,0.486v8.046H151.095z"/>
		<path fill="#666666" d="M160.922,488.976v-1.602c0-0.576-0.288-0.864-0.864-0.864h-0.252c-0.576,0-0.864,0.288-0.864,0.864v5.651
			c0,0.576,0.288,0.864,0.864,0.864h0.27c0.576,0,0.864-0.288,0.864-0.864V491.1h1.35v1.872c0,1.464-0.732,2.196-2.196,2.196h-0.324
			c-1.464,0-2.196-0.732-2.196-2.196v-5.544c0-1.464,0.731-2.196,2.196-2.196h0.342c1.44,0,2.16,0.72,2.16,2.16v1.584H160.922z"/>
		<path fill="#666666" d="M164.037,484.35v-1.53h1.44v1.53H164.037z M164.073,495.06v-9.72h1.368v9.72H164.073z"/>
		<path fill="#666666" d="M172.083,493.241c0,0.589-0.147,1.057-0.441,1.404c-0.294,0.349-0.729,0.522-1.305,0.522
			c-0.648,0-1.206-0.234-1.674-0.702v2.574h-1.368v-11.7h1.368v0.63c0.468-0.492,1.026-0.738,1.674-0.738
			c0.576,0,1.011,0.174,1.305,0.522c0.294,0.348,0.441,0.815,0.441,1.403V493.241z M170.714,487.319
			c0-0.527-0.264-0.792-0.792-0.792c-0.444,0-0.864,0.168-1.26,0.504v6.336c0.396,0.337,0.816,0.504,1.26,0.504
			c0.528,0,0.792-0.264,0.792-0.792V487.319z"/>
		<path fill="#666666" d="M173.721,493.458v-1.782c0-0.588,0.108-1.032,0.324-1.332c0.216-0.3,0.588-0.54,1.116-0.72l1.836-0.631
			v-1.619c0-0.588-0.288-0.883-0.864-0.883h-0.108c-0.576,0-0.864,0.295-0.864,0.883v1.205h-1.332v-1.151
			c0-1.464,0.732-2.196,2.196-2.196h0.144c1.464,0,2.196,0.732,2.196,2.196v7.632h-1.368v-0.612
			c-0.504,0.48-1.062,0.721-1.674,0.721C174.254,495.168,173.721,494.598,173.721,493.458z M175.755,493.871
			c0.384,0,0.798-0.149,1.242-0.449v-3.168l-1.242,0.432c-0.252,0.097-0.426,0.219-0.522,0.369c-0.096,0.15-0.144,0.363-0.144,0.639
			v1.477C175.089,493.638,175.311,493.871,175.755,493.871z"/>
		<path fill="#666666" d="M184.862,485.34v9.72h-1.368v-0.63c-0.516,0.492-1.092,0.738-1.728,0.738
			c-1.104,0-1.656-0.582-1.656-1.746v-8.082h1.368v7.794c0,0.492,0.234,0.737,0.702,0.737c0.42,0,0.858-0.161,1.314-0.485v-8.046
			H184.862z"/>
		<path fill="#666666" d="M187.508,495.06h-1.404l1.8-4.752l-1.764-4.968h1.44l1.134,3.42l1.134-3.42h1.404l-1.782,4.752
			l1.818,4.968h-1.44l-1.17-3.438L187.508,495.06z"/>
		<path fill="#666666" d="M198.416,488.76v-1.458c0-0.552-0.276-0.828-0.828-0.828h-0.234c-0.552,0-0.828,0.276-0.828,0.828v0.846
			c0,0.408,0.168,0.714,0.504,0.918l1.62,1.008c0.408,0.265,0.699,0.534,0.873,0.811s0.261,0.647,0.261,1.116v0.972
			c0,1.464-0.732,2.196-2.196,2.196h-0.27c-1.44,0-2.16-0.721-2.16-2.16v-1.44h1.35v1.53c0,0.552,0.276,0.828,0.828,0.828h0.27
			c0.552,0,0.828-0.276,0.828-0.828v-0.918c0-0.396-0.168-0.702-0.504-0.918l-1.62-1.008c-0.408-0.264-0.699-0.534-0.873-0.811
			c-0.174-0.275-0.261-0.647-0.261-1.116v-0.899c0-1.464,0.731-2.196,2.196-2.196h0.234c1.44,0,2.16,0.72,2.16,2.16v1.368H198.416z"
			/>
		<path fill="#666666" d="M201.511,484.35v-1.53h1.44v1.53H201.511z M201.547,495.06v-9.72h1.368v9.72H201.547z"/>
		<path fill="#666666" d="M206.497,486.6v8.46h-1.368v-8.46h-0.648v-1.26h0.648v-1.62h1.368v1.62h0.99v1.26H206.497z"/>
		<path fill="#666666" d="M213.391,490.703h-3.312v2.322c0,0.576,0.288,0.864,0.864,0.864h0.252c0.576,0,0.864-0.288,0.864-0.864
			v-1.116h1.332v1.062c0,1.464-0.732,2.196-2.196,2.196h-0.288c-1.464,0-2.196-0.732-2.196-2.196v-5.544
			c0-1.464,0.731-2.196,2.196-2.196h0.288c1.464,0,2.196,0.732,2.196,2.196V490.703z M210.079,487.374v2.033h1.944v-2.033
			c0-0.576-0.288-0.864-0.864-0.864h-0.216C210.367,486.51,210.079,486.798,210.079,487.374z"/>
		<path fill="#666666" d="M218.305,488.76v-1.458c0-0.552-0.276-0.828-0.828-0.828h-0.234c-0.552,0-0.828,0.276-0.828,0.828v0.846
			c0,0.408,0.168,0.714,0.504,0.918l1.62,1.008c0.408,0.265,0.699,0.534,0.873,0.811s0.261,0.647,0.261,1.116v0.972
			c0,1.464-0.732,2.196-2.196,2.196h-0.27c-1.44,0-2.16-0.721-2.16-2.16v-1.44h1.35v1.53c0,0.552,0.276,0.828,0.828,0.828h0.27
			c0.552,0,0.828-0.276,0.828-0.828v-0.918c0-0.396-0.168-0.702-0.504-0.918l-1.62-1.008c-0.408-0.264-0.699-0.534-0.873-0.811
			c-0.174-0.275-0.261-0.647-0.261-1.116v-0.899c0-1.464,0.731-2.196,2.196-2.196h0.234c1.44,0,2.16,0.72,2.16,2.16v1.368H218.305z"
			/>
		<path fill="#666666" d="M228.835,482.279v12.78h-1.368v-0.63c-0.468,0.492-1.026,0.738-1.674,0.738
			c-0.576,0-1.011-0.174-1.305-0.522c-0.294-0.348-0.441-0.815-0.441-1.404v-6.084c0-0.588,0.146-1.056,0.441-1.403
			c0.294-0.349,0.729-0.522,1.305-0.522c0.648,0,1.206,0.234,1.674,0.702v-3.654H228.835z M227.468,493.367v-6.336
			c-0.396-0.336-0.816-0.504-1.26-0.504c-0.528,0-0.792,0.265-0.792,0.792v5.76c0,0.528,0.264,0.792,0.792,0.792
			C226.651,493.871,227.072,493.704,227.468,493.367z"/>
		<path fill="#666666" d="M232.022,482.46l-0.72,4.697h-0.918l0.27-4.697H232.022z"/>
		<path fill="#666666" d="M233.318,493.458v-1.782c0-0.588,0.108-1.032,0.324-1.332c0.216-0.3,0.588-0.54,1.116-0.72l1.836-0.631
			v-1.619c0-0.588-0.288-0.883-0.864-0.883h-0.108c-0.576,0-0.864,0.295-0.864,0.883v1.205h-1.332v-1.151
			c0-1.464,0.732-2.196,2.196-2.196h0.144c1.464,0,2.196,0.732,2.196,2.196v7.632h-1.368v-0.612
			c-0.504,0.48-1.062,0.721-1.674,0.721C233.852,495.168,233.318,494.598,233.318,493.458z M235.352,493.871
			c0.384,0,0.798-0.149,1.242-0.449v-3.168l-1.242,0.432c-0.252,0.097-0.426,0.219-0.522,0.369c-0.096,0.15-0.144,0.363-0.144,0.639
			v1.477C234.686,493.638,234.908,493.871,235.352,493.871z"/>
		<path fill="#666666" d="M239.726,495.06v-9.72h1.368v0.63c0.516-0.492,1.092-0.738,1.728-0.738c1.104,0,1.656,0.582,1.656,1.746
			v8.082h-1.368v-7.794c0-0.492-0.234-0.738-0.702-0.738c-0.42,0-0.858,0.162-1.314,0.486v8.046H239.726z"/>
		<path fill="#666666" d="M246.259,495.06v-9.72h1.368v0.63c0.516-0.492,1.092-0.738,1.728-0.738c1.104,0,1.656,0.582,1.656,1.746
			v8.082h-1.368v-7.794c0-0.492-0.234-0.738-0.702-0.738c-0.42,0-0.858,0.162-1.314,0.486v8.046H246.259z"/>
		<path fill="#666666" d="M255.331,495.168h-0.396c-1.465,0-2.196-0.732-2.196-2.196v-5.544c0-1.464,0.731-2.196,2.196-2.196h0.396
			c1.464,0,2.196,0.732,2.196,2.196v5.544C257.527,494.436,256.795,495.168,255.331,495.168z M255.295,486.51h-0.324
			c-0.575,0-0.863,0.288-0.863,0.864v5.651c0,0.576,0.288,0.864,0.863,0.864h0.324c0.576,0,0.864-0.288,0.864-0.864v-5.651
			C256.159,486.798,255.871,486.51,255.295,486.51z"/>
		<path fill="#666666" d="M259.272,495.06v-9.72h1.368v0.63c0.516-0.492,1.092-0.738,1.728-0.738c1.104,0,1.656,0.582,1.656,1.746
			v8.082h-1.368v-7.794c0-0.492-0.233-0.738-0.702-0.738c-0.42,0-0.857,0.162-1.313,0.486v8.046H259.272z"/>
		<path fill="#666666" d="M269.101,488.976v-1.602c0-0.576-0.288-0.864-0.864-0.864h-0.252c-0.575,0-0.863,0.288-0.863,0.864v5.651
			c0,0.576,0.288,0.864,0.863,0.864h0.271c0.576,0,0.864-0.288,0.864-0.864V491.1h1.35v1.872c0,1.464-0.732,2.196-2.196,2.196
			h-0.323c-1.465,0-2.196-0.732-2.196-2.196v-5.544c0-1.464,0.731-2.196,2.196-2.196h0.342c1.439,0,2.16,0.72,2.16,2.16v1.584
			H269.101z"/>
		<path fill="#666666" d="M276.823,490.703h-3.312v2.322c0,0.576,0.288,0.864,0.863,0.864h0.252c0.576,0,0.864-0.288,0.864-0.864
			v-1.116h1.332v1.062c0,1.464-0.732,2.196-2.196,2.196h-0.287c-1.465,0-2.196-0.732-2.196-2.196v-5.544
			c0-1.464,0.731-2.196,2.196-2.196h0.287c1.464,0,2.196,0.732,2.196,2.196V490.703z M273.512,487.374v2.033h1.943v-2.033
			c0-0.576-0.288-0.864-0.863-0.864h-0.217C273.8,486.51,273.512,486.798,273.512,487.374z"/>
		<path fill="#666666" d="M281.737,488.76v-1.458c0-0.552-0.276-0.828-0.828-0.828h-0.234c-0.552,0-0.828,0.276-0.828,0.828v0.846
			c0,0.408,0.168,0.714,0.504,0.918l1.62,1.008c0.408,0.265,0.699,0.534,0.873,0.811s0.261,0.647,0.261,1.116v0.972
			c0,1.464-0.731,2.196-2.195,2.196h-0.271c-1.439,0-2.16-0.721-2.16-2.16v-1.44h1.351v1.53c0,0.552,0.275,0.828,0.828,0.828h0.27
			c0.552,0,0.828-0.276,0.828-0.828v-0.918c0-0.396-0.168-0.702-0.504-0.918l-1.62-1.008c-0.408-0.264-0.699-0.534-0.873-0.811
			c-0.174-0.275-0.261-0.647-0.261-1.116v-0.899c0-1.464,0.731-2.196,2.196-2.196h0.233c1.44,0,2.16,0.72,2.16,2.16v1.368H281.737z"
			/>
		<path fill="#666666" d="M287.533,484.35v-1.53h1.439v1.53H287.533z M287.568,495.06v-9.72h1.368v9.72H287.568z"/>
		<path fill="#666666" d="M295.435,487.014v8.046h-1.368v-7.83c0-0.468-0.216-0.702-0.648-0.702c-0.384,0-0.804,0.162-1.26,0.486
			v8.046h-1.368v-9.72h1.368v0.63c0.516-0.492,1.074-0.738,1.674-0.738c0.685,0,1.158,0.265,1.422,0.792
			c0.624-0.527,1.242-0.792,1.854-0.792c0.527,0,0.927,0.15,1.196,0.45c0.271,0.3,0.405,0.72,0.405,1.26v8.118h-1.368v-7.83
			c0-0.468-0.216-0.702-0.647-0.702C296.31,486.527,295.89,486.689,295.435,487.014z"/>
		<path fill="#666666" d="M305.137,487.014v8.046h-1.368v-7.83c0-0.468-0.216-0.702-0.648-0.702c-0.384,0-0.804,0.162-1.26,0.486
			v8.046h-1.368v-9.72h1.368v0.63c0.516-0.492,1.074-0.738,1.674-0.738c0.685,0,1.158,0.265,1.422,0.792
			c0.624-0.527,1.242-0.792,1.854-0.792c0.527,0,0.927,0.15,1.196,0.45c0.271,0.3,0.405,0.72,0.405,1.26v8.118h-1.368v-7.83
			c0-0.468-0.216-0.702-0.647-0.702C306.012,486.527,305.592,486.689,305.137,487.014z"/>
		<path fill="#666666" d="M312.732,495.168h-0.396c-1.465,0-2.196-0.732-2.196-2.196v-5.544c0-1.464,0.731-2.196,2.196-2.196h0.396
			c1.464,0,2.196,0.732,2.196,2.196v5.544C314.929,494.436,314.196,495.168,312.732,495.168z M312.696,486.51h-0.324
			c-0.575,0-0.863,0.288-0.863,0.864v5.651c0,0.576,0.288,0.864,0.863,0.864h0.324c0.576,0,0.864-0.288,0.864-0.864v-5.651
			C313.561,486.798,313.272,486.51,312.696,486.51z"/>
		<path fill="#666666" d="M316.674,495.06v-12.78h1.368v3.69c0.468-0.492,1.026-0.738,1.674-0.738c0.576,0,1.011,0.174,1.305,0.522
			c0.294,0.348,0.441,0.815,0.441,1.403v6.084c0,0.589-0.147,1.057-0.441,1.404c-0.294,0.349-0.729,0.522-1.305,0.522
			c-0.647,0-1.206-0.234-1.674-0.702v0.594H316.674z M318.042,487.031v6.336c0.396,0.337,0.815,0.504,1.26,0.504
			c0.528,0,0.792-0.264,0.792-0.792v-5.76c0-0.527-0.264-0.792-0.792-0.792C318.857,486.527,318.438,486.695,318.042,487.031z"/>
		<path fill="#666666" d="M323.244,484.35v-1.53h1.439v1.53H323.244z M323.279,495.06v-9.72h1.368v9.72H323.279z"/>
		<path fill="#666666" d="M326.556,495.06v-12.78h1.368v12.78H326.556z"/>
		<path fill="#666666" d="M329.797,484.35v-1.53h1.439v1.53H329.797z M329.832,495.06v-9.72h1.368v9.72H329.832z"/>
		<path fill="#666666" d="M337.681,490.703h-3.312v2.322c0,0.576,0.288,0.864,0.863,0.864h0.252c0.576,0,0.864-0.288,0.864-0.864
			v-1.116h1.332v1.062c0,1.464-0.732,2.196-2.196,2.196h-0.287c-1.465,0-2.196-0.732-2.196-2.196v-5.544
			c0-1.464,0.731-2.196,2.196-2.196h0.287c1.464,0,2.196,0.732,2.196,2.196V490.703z M335.179,482.64l0.648,1.89h-0.918l-1.116-1.89
			H335.179z M334.369,487.374v2.033h1.943v-2.033c0-0.576-0.288-0.864-0.863-0.864h-0.217
			C334.657,486.51,334.369,486.798,334.369,487.374z"/>
		<path fill="#666666" d="M339.408,495.06v-9.72h1.368v1.025c0.216-0.396,0.441-0.681,0.675-0.854
			c0.234-0.174,0.531-0.261,0.892-0.261v1.548c-0.648,0.048-1.171,0.252-1.566,0.611v7.65H339.408z"/>
		<path fill="#666666" d="M348.245,490.703h-3.312v2.322c0,0.576,0.288,0.864,0.863,0.864h0.252c0.576,0,0.864-0.288,0.864-0.864
			v-1.116h1.332v1.062c0,1.464-0.732,2.196-2.196,2.196h-0.287c-1.465,0-2.196-0.732-2.196-2.196v-5.544
			c0-1.464,0.731-2.196,2.196-2.196h0.287c1.464,0,2.196,0.732,2.196,2.196V490.703z M344.934,487.374v2.033h1.943v-2.033
			c0-0.576-0.288-0.864-0.863-0.864h-0.217C345.222,486.51,344.934,486.798,344.934,487.374z"/>
		<path fill="#666666" d="M353.159,488.76v-1.458c0-0.552-0.276-0.828-0.828-0.828h-0.234c-0.552,0-0.828,0.276-0.828,0.828v0.846
			c0,0.408,0.168,0.714,0.504,0.918l1.62,1.008c0.408,0.265,0.699,0.534,0.873,0.811s0.261,0.647,0.261,1.116v0.972
			c0,1.464-0.731,2.196-2.195,2.196h-0.271c-1.439,0-2.16-0.721-2.16-2.16v-1.44h1.351v1.53c0,0.552,0.275,0.828,0.828,0.828h0.27
			c0.552,0,0.828-0.276,0.828-0.828v-0.918c0-0.396-0.168-0.702-0.504-0.918l-1.62-1.008c-0.408-0.264-0.699-0.534-0.873-0.811
			c-0.174-0.275-0.261-0.647-0.261-1.116v-0.899c0-1.464,0.731-2.196,2.196-2.196h0.233c1.44,0,2.16,0.72,2.16,2.16v1.368H353.159z"
			/>
		<path fill="#666666" d="M362.123,488.76v-1.458c0-0.552-0.276-0.828-0.828-0.828h-0.234c-0.552,0-0.828,0.276-0.828,0.828v0.846
			c0,0.408,0.168,0.714,0.504,0.918l1.62,1.008c0.408,0.265,0.699,0.534,0.873,0.811s0.261,0.647,0.261,1.116v0.972
			c0,1.464-0.731,2.196-2.195,2.196h-0.271c-1.439,0-2.16-0.721-2.16-2.16v-1.44h1.351v1.53c0,0.552,0.275,0.828,0.828,0.828h0.27
			c0.552,0,0.828-0.276,0.828-0.828v-0.918c0-0.396-0.168-0.702-0.504-0.918l-1.62-1.008c-0.408-0.264-0.699-0.534-0.873-0.811
			c-0.174-0.275-0.261-0.647-0.261-1.116v-0.899c0-1.464,0.731-2.196,2.196-2.196h0.233c1.44,0,2.16,0.72,2.16,2.16v1.368H362.123z"
			/>
		<path fill="#666666" d="M369.935,485.34v9.72h-1.368v-0.63c-0.517,0.492-1.092,0.738-1.729,0.738
			c-1.104,0-1.655-0.582-1.655-1.746v-8.082h1.368v7.794c0,0.492,0.233,0.737,0.701,0.737c0.42,0,0.858-0.161,1.314-0.485v-8.046
			H369.935z"/>
		<path fill="#666666" d="M371.753,484.35v-1.53h1.439v1.53H371.753z M371.788,495.06v-9.72h1.368v9.72H371.788z"/>
		<path fill="#666666" d="M378.197,488.76v-1.458c0-0.552-0.276-0.828-0.828-0.828h-0.234c-0.552,0-0.828,0.276-0.828,0.828v0.846
			c0,0.408,0.168,0.714,0.504,0.918l1.62,1.008c0.408,0.265,0.699,0.534,0.873,0.811s0.261,0.647,0.261,1.116v0.972
			c0,1.464-0.731,2.196-2.195,2.196h-0.271c-1.439,0-2.16-0.721-2.16-2.16v-1.44h1.351v1.53c0,0.552,0.275,0.828,0.828,0.828h0.27
			c0.552,0,0.828-0.276,0.828-0.828v-0.918c0-0.396-0.168-0.702-0.504-0.918l-1.62-1.008c-0.408-0.264-0.699-0.534-0.873-0.811
			c-0.174-0.275-0.261-0.647-0.261-1.116v-0.899c0-1.464,0.731-2.196,2.196-2.196h0.233c1.44,0,2.16,0.72,2.16,2.16v1.368H378.197z"
			/>
		<path fill="#666666" d="M384.461,488.76v-1.458c0-0.552-0.276-0.828-0.828-0.828h-0.234c-0.552,0-0.828,0.276-0.828,0.828v0.846
			c0,0.408,0.168,0.714,0.504,0.918l1.62,1.008c0.408,0.265,0.699,0.534,0.873,0.811s0.261,0.647,0.261,1.116v0.972
			c0,1.464-0.731,2.196-2.195,2.196h-0.271c-1.439,0-2.16-0.721-2.16-2.16v-1.44h1.351v1.53c0,0.552,0.275,0.828,0.828,0.828h0.27
			c0.552,0,0.828-0.276,0.828-0.828v-0.918c0-0.396-0.168-0.702-0.504-0.918l-1.62-1.008c-0.408-0.264-0.699-0.534-0.873-0.811
			c-0.174-0.275-0.261-0.647-0.261-1.116v-0.899c0-1.464,0.731-2.196,2.196-2.196h0.233c1.44,0,2.16,0.72,2.16,2.16v1.368H384.461z"
			/>
		<path fill="#666666" d="M392.164,490.703h-3.312v2.322c0,0.576,0.288,0.864,0.863,0.864h0.252c0.576,0,0.864-0.288,0.864-0.864
			v-1.116h1.332v1.062c0,1.464-0.732,2.196-2.196,2.196h-0.287c-1.465,0-2.196-0.732-2.196-2.196v-5.544
			c0-1.464,0.731-2.196,2.196-2.196h0.287c1.464,0,2.196,0.732,2.196,2.196V490.703z M388.853,487.374v2.033h1.943v-2.033
			c0-0.576-0.288-0.864-0.863-0.864h-0.217C389.141,486.51,388.853,486.798,388.853,487.374z"/>
		<path fill="#666666" d="M397.079,488.76v-1.458c0-0.552-0.276-0.828-0.828-0.828h-0.234c-0.552,0-0.828,0.276-0.828,0.828v0.846
			c0,0.408,0.168,0.714,0.504,0.918l1.62,1.008c0.408,0.265,0.699,0.534,0.873,0.811s0.261,0.647,0.261,1.116v0.972
			c0,1.464-0.731,2.196-2.195,2.196h-0.271c-1.439,0-2.16-0.721-2.16-2.16v-1.44h1.351v1.53c0,0.552,0.275,0.828,0.828,0.828h0.27
			c0.552,0,0.828-0.276,0.828-0.828v-0.918c0-0.396-0.168-0.702-0.504-0.918l-1.62-1.008c-0.408-0.264-0.699-0.534-0.873-0.811
			c-0.174-0.275-0.261-0.647-0.261-1.116v-0.899c0-1.464,0.731-2.196,2.196-2.196h0.233c1.44,0,2.16,0.72,2.16,2.16v1.368H397.079z"
			/>
		<path fill="#666666" d="M405.862,481.884l-2.34,13.752h-1.224l2.34-13.752H405.862z"/>
		<path fill="#666666" d="M416.123,494.483h-0.433c-0.359,0-0.624-0.057-0.792-0.171s-0.288-0.309-0.359-0.585
			c-0.408,0.517-0.912,0.774-1.513,0.774c-0.42,0-0.74-0.123-0.963-0.369c-0.222-0.246-0.333-0.585-0.333-1.018v-1.926
			c0-0.443,0.078-0.78,0.234-1.008s0.432-0.408,0.828-0.54l1.584-0.54v-1.44c0-0.479-0.223-0.72-0.666-0.72h-0.072
			c-0.468,0-0.702,0.24-0.702,0.72v1.026h-1.115v-1.08c0-1.176,0.581-1.764,1.745-1.764h0.198c1.164,0,1.746,0.588,1.746,1.764v5.76
			c0,0.337,0.156,0.504,0.468,0.504h0.145c0.407,0,0.611-0.293,0.611-0.882v-6.084c0-0.888-0.159-1.5-0.477-1.836
			c-0.318-0.336-0.879-0.504-1.683-0.504h-1.872c-0.805,0-1.365,0.168-1.684,0.504c-0.317,0.336-0.477,0.948-0.477,1.836v6.553
			c0,0.888,0.159,1.5,0.477,1.836c0.318,0.335,0.879,0.504,1.684,0.504h4.176v0.611h-4.176c-1.044,0-1.773-0.213-2.188-0.639
			s-0.621-1.197-0.621-2.312v-6.553c0-1.092,0.213-1.856,0.64-2.295c0.426-0.438,1.148-0.657,2.169-0.657h1.872
			c1.02,0,1.742,0.22,2.169,0.657c0.426,0.438,0.639,1.203,0.639,2.295v6.12c0,0.517-0.103,0.889-0.306,1.116
			C416.873,494.37,416.555,494.483,416.123,494.483z M413.387,493.422c0.264,0,0.594-0.132,0.99-0.396v-2.826l-1.026,0.36
			c-0.324,0.108-0.485,0.349-0.485,0.72v1.548C412.865,493.224,413.039,493.422,413.387,493.422z"/>
		<path fill="#666666" d="M423.232,489.119c0.756,0.205,1.134,0.769,1.134,1.692v4.248h-1.439v-4.194
			c0-0.731-0.366-1.098-1.099-1.098h-1.062v5.292h-1.44v-12.6h2.683c1.56,0,2.34,0.78,2.34,2.34v2.34
			C424.349,488.159,423.977,488.819,423.232,489.119z M422.908,484.728c0-0.636-0.317-0.954-0.954-0.954h-1.188v4.716h1.08
			c0.708,0,1.062-0.354,1.062-1.062V484.728z"/>
		<path fill="#666666" d="M430.811,490.703h-3.312v2.322c0,0.576,0.288,0.864,0.863,0.864h0.252c0.576,0,0.864-0.288,0.864-0.864
			v-1.116h1.332v1.062c0,1.464-0.732,2.196-2.196,2.196h-0.287c-1.465,0-2.196-0.732-2.196-2.196v-5.544
			c0-1.464,0.731-2.196,2.196-2.196h0.287c1.464,0,2.196,0.732,2.196,2.196V490.703z M427.499,487.374v2.033h1.943v-2.033
			c0-0.576-0.288-0.864-0.863-0.864h-0.217C427.787,486.51,427.499,486.798,427.499,487.374z"/>
		<path fill="#666666" d="M432.538,495.06v-9.72h1.368v0.63c0.516-0.492,1.092-0.738,1.728-0.738c1.104,0,1.656,0.582,1.656,1.746
			v8.082h-1.368v-7.794c0-0.492-0.233-0.738-0.702-0.738c-0.42,0-0.857,0.162-1.313,0.486v8.046H432.538z"/>
		<path fill="#666666" d="M440.8,486.6v8.46h-1.368v-8.46h-0.648v-1.26h0.648v-1.62h1.368v1.62h0.989v1.26H440.8z"/>
		<path fill="#666666" d="M446.254,488.76v-1.458c0-0.552-0.276-0.828-0.828-0.828h-0.234c-0.552,0-0.828,0.276-0.828,0.828v0.846
			c0,0.408,0.168,0.714,0.504,0.918l1.62,1.008c0.408,0.265,0.699,0.534,0.873,0.811s0.261,0.647,0.261,1.116v0.972
			c0,1.464-0.731,2.196-2.195,2.196h-0.271c-1.439,0-2.16-0.721-2.16-2.16v-1.44h1.351v1.53c0,0.552,0.275,0.828,0.828,0.828h0.27
			c0.552,0,0.828-0.276,0.828-0.828v-0.918c0-0.396-0.168-0.702-0.504-0.918l-1.62-1.008c-0.408-0.264-0.699-0.534-0.873-0.811
			c-0.174-0.275-0.261-0.647-0.261-1.116v-0.899c0-1.464,0.731-2.196,2.196-2.196h0.233c1.44,0,2.16,0.72,2.16,2.16v1.368H446.254z"
			/>
		<path fill="#666666" d="M454.317,482.46l1.151,10.728l1.116-10.728h1.404l-1.53,12.6h-1.872l-1.025-9.036l-0.99,9.036h-1.872
			l-1.53-12.6h1.44l1.08,10.728l1.188-10.728H454.317z"/>
		<path fill="#666666" d="M459.303,493.458v-1.782c0-0.588,0.108-1.032,0.324-1.332s0.588-0.54,1.116-0.72l1.836-0.631v-1.619
			c0-0.588-0.288-0.883-0.864-0.883h-0.108c-0.575,0-0.863,0.295-0.863,0.883v1.205h-1.332v-1.151c0-1.464,0.731-2.196,2.195-2.196
			h0.145c1.464,0,2.196,0.732,2.196,2.196v7.632h-1.368v-0.612c-0.504,0.48-1.062,0.721-1.674,0.721
			C459.837,495.168,459.303,494.598,459.303,493.458z M461.337,493.871c0.384,0,0.798-0.149,1.242-0.449v-3.168l-1.242,0.432
			c-0.252,0.097-0.426,0.219-0.522,0.369c-0.096,0.15-0.144,0.363-0.144,0.639v1.477
			C460.671,493.638,460.893,493.871,461.337,493.871z"/>
		<path fill="#666666" d="M467.35,486.6v8.46h-1.368v-8.46h-0.648v-1.26h0.648v-1.62h1.368v1.62h0.989v1.26H467.35z"/>
		<path fill="#666666" d="M472.911,488.976v-1.602c0-0.576-0.288-0.864-0.864-0.864h-0.252c-0.575,0-0.863,0.288-0.863,0.864v5.651
			c0,0.576,0.288,0.864,0.863,0.864h0.271c0.576,0,0.864-0.288,0.864-0.864V491.1h1.35v1.872c0,1.464-0.732,2.196-2.196,2.196
			h-0.323c-1.465,0-2.196-0.732-2.196-2.196v-5.544c0-1.464,0.731-2.196,2.196-2.196h0.342c1.439,0,2.16,0.72,2.16,2.16v1.584
			H472.911z"/>
		<path fill="#666666" d="M476.007,495.06v-12.78h1.368v3.69c0.516-0.492,1.092-0.738,1.728-0.738c1.104,0,1.656,0.582,1.656,1.746
			v8.082h-1.368v-7.794c0-0.492-0.233-0.738-0.702-0.738c-0.42,0-0.857,0.162-1.313,0.486v8.046H476.007z"/>
	</g>
	<rect y="444" fill="#940026" width="63.999" height="64"/>
	<path id="Fill-4_2_" fill="#FFFFFF" d="M53.512,464.812h-0.617c-0.827-3.03-5.025-10.811-7.987-11.223
		c-1.584-0.205-3.582-0.275-5.303-0.275h-3.029v41.378c0,1.513,0.551,2.753,2.136,3.438c0.825,0.344,4.336,0.828,5.576,0.896v0.484
		H19.71v-0.487c1.237-0.067,4.682-0.413,5.576-0.755c1.655-0.621,2.134-1.929,2.134-3.445v-41.51h-2.957
		c-1.584,0-3.789,0.069-5.302,0.275c-2.961,0.412-7.23,8.189-8.055,11.223h-0.619v-12.324h43.025V464.812"/>
</g>
<g id="c_x5F_divers" display="none">
</g>
<g id="c_x5F_secherons">
	<g>
		<path fill="#BBE88D" stroke="#8CAE6A" stroke-miterlimit="10" d="M266.08,14.5h-22.803c-1.363,0-2.777,0.643-2.777,2.007v22.804
			c0,1.363,1.414,2.189,2.777,2.189h5.651l5.786,5.785L260.5,41.5h5.58c1.363,0,2.42-0.826,2.42-2.189V16.507
			C268.5,15.143,267.443,14.5,266.08,14.5z"/>
		<rect x="244.707" y="23.094" fill="none" width="19.709" height="13.342"/>
		<text transform="matrix(1 0 0 1 246.6758 33.2886)" font-family="HelveticaLTStd-Bold" font-size="14.1788">27</text>
	</g>
</g>
<g id="c_x5F_nations">
	<g>
		<path fill="#BBE88D" stroke="#8CAE6A" stroke-miterlimit="10" d="M199.08,56.5h-22.803c-1.363,0-2.777,0.643-2.777,2.007v22.804
			c0,1.363,1.414,2.189,2.777,2.189h5.651l5.786,5.785L193.5,83.5h5.58c1.363,0,2.42-0.826,2.42-2.189V58.507
			C201.5,57.143,200.443,56.5,199.08,56.5z"/>
		<rect x="177.707" y="65.094" fill="none" width="19.709" height="13.342"/>
		<text transform="matrix(1 0 0 1 179.6758 75.2886)" font-family="HelveticaLTStd-Bold" font-size="14.1788">27</text>
	</g>
</g>
<g id="c_x5F_paquis">
	<g>
		<path fill="#BBE88D" stroke="#8CAE6A" stroke-miterlimit="10" d="M305.08,120.5h-22.803c-1.363,0-2.777,0.643-2.777,2.007v22.804
			c0,1.363,1.414,2.189,2.777,2.189h5.651l5.786,5.785l5.785-5.785h5.58c1.363,0,2.42-0.826,2.42-2.189v-22.804
			C307.5,121.143,306.443,120.5,305.08,120.5z"/>
		<rect x="283.707" y="129.094" fill="none" width="19.709" height="13.342"/>
		<text transform="matrix(1 0 0 1 285.6758 139.2886)" font-family="HelveticaLTStd-Bold" font-size="14.1788">27</text>
	</g>
</g>
<g id="c_x5F_grand-pre">
	<g>
		<path fill="#BBE88D" stroke="#8CAE6A" stroke-miterlimit="10" d="M161.08,166.5h-22.803c-1.363,0-2.777,0.643-2.777,2.007v22.804
			c0,1.363,1.414,2.189,2.777,2.189h5.651l5.786,5.785l5.785-5.785h5.58c1.363,0,2.42-0.826,2.42-2.189v-22.804
			C163.5,167.143,162.443,166.5,161.08,166.5z"/>
		<rect x="139.707" y="175.094" fill="none" width="19.709" height="13.342"/>
		<text transform="matrix(1 0 0 1 141.6758 185.2886)" font-family="HelveticaLTStd-Bold" font-size="14.1788">27</text>
	</g>
</g>
<g id="c_x5F_saint-gervais">
	<g>
		<path fill="#BBE88D" stroke="#8CAE6A" stroke-miterlimit="10" d="M260.08,195.5h-22.803c-1.363,0-2.777,0.643-2.777,2.007v22.804
			c0,1.363,1.414,2.189,2.777,2.189h5.651l5.786,5.785l5.785-5.785h5.58c1.363,0,2.42-0.826,2.42-2.189v-22.804
			C262.5,196.143,261.443,195.5,260.08,195.5z"/>
		<rect x="238.707" y="204.094" fill="none" width="19.709" height="13.342"/>
		<text transform="matrix(1 0 0 1 240.6758 214.2886)" font-family="HelveticaLTStd-Bold" font-size="14.1788">27</text>
	</g>
</g>
<g id="c_x5F_saint-jean">
	<g>
		<path fill="#BBE88D" stroke="#8CAE6A" stroke-miterlimit="10" d="M121.08,216.5H98.277c-1.363,0-2.777,0.643-2.777,2.007v22.804
			c0,1.363,1.414,2.189,2.777,2.189h5.651l5.786,5.785l5.785-5.785h5.58c1.363,0,2.42-0.826,2.42-2.189v-22.804
			C123.5,217.143,122.443,216.5,121.08,216.5z"/>
		<rect x="99.707" y="225.094" fill="none" width="19.709" height="13.342"/>
		<text transform="matrix(1 0 0 1 101.6758 235.2886)" font-family="HelveticaLTStd-Bold" font-size="14.1788">27</text>
	</g>
</g>
<g id="c_x5F_bastions">
	<g>
		<path fill="#BBE88D" stroke="#8CAE6A" stroke-miterlimit="10" d="M264.08,257.5h-22.803c-1.363,0-2.777,0.643-2.777,2.007v22.804
			c0,1.363,1.414,2.189,2.777,2.189h5.651l5.786,5.785l5.785-5.785h5.58c1.363,0,2.42-0.826,2.42-2.189v-22.804
			C266.5,258.143,265.443,257.5,264.08,257.5z"/>
		<rect x="242.707" y="266.094" fill="none" width="19.709" height="13.342"/>
		<text transform="matrix(1 0 0 1 244.6758 276.2891)" font-family="HelveticaLTStd-Bold" font-size="14.1788">27</text>
	</g>
</g>
<g id="c_x5F_jonction">
	<g>
		<path fill="#BBE88D" stroke="#8CAE6A" stroke-miterlimit="10" d="M193.08,289.5h-22.803c-1.363,0-2.777,0.643-2.777,2.007v22.804
			c0,1.363,1.414,2.189,2.777,2.189h5.651l5.786,5.785l5.785-5.785h5.58c1.363,0,2.42-0.826,2.42-2.189v-22.804
			C195.5,290.143,194.443,289.5,193.08,289.5z"/>
		<rect x="171.707" y="298.094" fill="none" width="19.709" height="13.342"/>
		<text transform="matrix(1 0 0 1 173.6758 308.2891)" font-family="HelveticaLTStd-Bold" font-size="14.1788">27</text>
	</g>
</g>
<g id="c_x5F_cite">
	<g>
		<path fill="#BBE88D" stroke="#8CAE6A" stroke-miterlimit="10" d="M319.08,275.5h-22.803c-1.363,0-2.777,0.643-2.777,2.007v22.804
			c0,1.363,1.414,2.189,2.777,2.189h5.651l5.786,5.785l5.785-5.785h5.58c1.363,0,2.42-0.826,2.42-2.189v-22.804
			C321.5,276.143,320.443,275.5,319.08,275.5z"/>
		<rect x="297.707" y="284.094" fill="none" width="19.709" height="13.342"/>
		<text transform="matrix(1 0 0 1 299.6758 294.2891)" font-family="HelveticaLTStd-Bold" font-size="14.1788">27</text>
	</g>
</g>
<g id="c_x5F_eaux-vives">
	<g>
		<path fill="#BBE88D" stroke="#8CAE6A" stroke-miterlimit="10" d="M409.08,227.5h-22.803c-1.363,0-2.777,0.643-2.777,2.007v22.804
			c0,1.363,1.414,2.189,2.777,2.189h5.651l5.786,5.785l5.785-5.785h5.58c1.363,0,2.42-0.826,2.42-2.189v-22.804
			C411.5,228.143,410.443,227.5,409.08,227.5z"/>
		<rect x="387.707" y="236.094" fill="none" width="19.709" height="13.342"/>
		<text transform="matrix(1 0 0 1 389.6758 246.2886)" font-family="HelveticaLTStd-Bold" font-size="14.1788">27</text>
	</g>
</g>
<g id="c_x5F_florissant">
	<g>
		<path fill="#BBE88D" stroke="#8CAE6A" stroke-miterlimit="10" d="M414.08,320.5h-22.803c-1.363,0-2.777,0.643-2.777,2.007v22.804
			c0,1.363,1.414,2.189,2.777,2.189h5.651l5.786,5.785l5.785-5.785h5.58c1.363,0,2.42-0.826,2.42-2.189v-22.804
			C416.5,321.143,415.443,320.5,414.08,320.5z"/>
		<rect x="392.707" y="329.094" fill="none" width="19.709" height="13.342"/>
		<text transform="matrix(1 0 0 1 394.6758 339.2891)" font-family="HelveticaLTStd-Bold" font-size="14.1788">27</text>
	</g>
</g>
<g id="c_x5F_tranchee-rive">
	<g>
		<path fill="#BBE88D" stroke="#8CAE6A" stroke-miterlimit="10" d="M331.08,324.5h-22.803c-1.363,0-2.777,0.643-2.777,2.007v22.804
			c0,1.363,1.414,2.189,2.777,2.189h5.651l5.786,5.785l5.785-5.785h5.58c1.363,0,2.42-0.826,2.42-2.189v-22.804
			C333.5,325.143,332.443,324.5,331.08,324.5z"/>
		<rect x="309.707" y="333.094" fill="none" width="19.709" height="13.342"/>
		<text transform="matrix(1 0 0 1 311.6758 343.2891)" font-family="HelveticaLTStd-Bold" font-size="14.1788">27</text>
	</g>
</g>
<g id="c_x5F_acacias-vernets">
	<g>
		<path fill="#BBE88D" stroke="#8CAE6A" stroke-miterlimit="10" d="M146.08,364.5h-22.803c-1.363,0-2.777,0.643-2.777,2.007v22.804
			c0,1.363,1.414,2.189,2.777,2.189h5.651l5.786,5.785l5.785-5.785h5.58c1.363,0,2.42-0.826,2.42-2.189v-22.804
			C148.5,365.143,147.443,364.5,146.08,364.5z"/>
		<rect x="124.707" y="373.094" fill="none" width="19.709" height="13.342"/>
		<text transform="matrix(1 0 0 1 126.6758 383.2891)" font-family="HelveticaLTStd-Bold" font-size="14.1788">27</text>
	</g>
</g>
<g id="c_x5F_cluse">
	<g>
		<path fill="#BBE88D" stroke="#8CAE6A" stroke-miterlimit="10" d="M272.08,383.5h-22.803c-1.363,0-2.777,0.643-2.777,2.007v22.804
			c0,1.363,1.414,2.189,2.777,2.189h5.651l5.786,5.785l5.785-5.785h5.58c1.363,0,2.42-0.826,2.42-2.189v-22.804
			C274.5,384.143,273.443,383.5,272.08,383.5z"/>
		<rect x="250.707" y="392.094" fill="none" width="19.709" height="13.342"/>
		<text transform="matrix(1 0 0 1 252.6758 402.2891)" font-family="HelveticaLTStd-Bold" font-size="14.1788">27</text>
	</g>
</g>
<g id="c_x5F_champel">
	<g>
		<path fill="#BBE88D" stroke="#8CAE6A" stroke-miterlimit="10" d="M380.08,368.5h-22.803c-1.363,0-2.777,0.643-2.777,2.007v22.804
			c0,1.363,1.414,2.189,2.777,2.189h5.651l5.786,5.785l5.785-5.785h5.58c1.363,0,2.42-0.826,2.42-2.189v-22.804
			C382.5,369.143,381.443,368.5,380.08,368.5z"/>
		<rect x="358.707" y="377.094" fill="none" width="19.709" height="13.342"/>
		<text transform="matrix(1 0 0 1 360.6758 387.2891)" font-family="HelveticaLTStd-Bold" font-size="14.1788">27</text>
	</g>
</g>
</svg>
